<?xml version="1.0" encoding="UTF-8"?>
<svg id="_레이어_2" data-name="레이어 2" xmlns="http://www.w3.org/2000/svg" viewBox="0 0 280.56 63.64">
  <g id="_레이어_1-2" data-name="레이어 1">
    <g fill="#ffffff">
      <path d="M266.63,51.85c-.34-.37-.75-.65-1.21-.85-.47-.19-.99-.29-1.57-.29-.65,0-1.24.11-1.76.33-.53.22-.98.54-1.35.95-.37.41-.66.91-.86,1.5-.2.59-.31,1.26-.31,1.99,0,.67.1,1.29.29,1.86.19.57.49,1.07.88,1.49.4.43.9.76,1.5,1,.61.24,1.32.36,2.15.36.23,0,.47-.02.73-.05.26-.04.51-.09.76-.16.25-.07.5-.16.73-.25.23-.1.44-.21.62-.34.12-.08.19-.18.22-.3.03-.11.02-.22-.02-.31-.04-.09-.12-.16-.23-.2-.11-.04-.24-.03-.4.03-.38.14-.78.28-1.18.41-.4.13-.81.2-1.23.2-.54,0-1.01-.09-1.42-.28-.41-.19-.75-.43-1.04-.73-.28-.3-.5-.64-.64-1.02-.14-.38-.22-.76-.22-1.16v-.36h6.03c.18,0,.32-.04.42-.11.1-.07.15-.21.15-.41,0-.72-.09-1.36-.28-1.92-.19-.56-.45-1.02-.79-1.4ZM261.11,54.76c.01-.49.1-.93.26-1.32.16-.39.37-.72.62-.99.25-.27.54-.47.85-.61.32-.14.65-.21,1-.21.68,0,1.24.27,1.66.8.42.53.64,1.31.67,2.33h-5.06Z"/>
      <path d="M174.22,59.24l-.56-.13c-.11-.02-.2-.07-.29-.13-.08-.06-.16-.13-.22-.22l-2.59-3.51,2.45-3.13c.08-.1.15-.16.21-.21.05-.04.15-.07.28-.1l.54-.09c.07-.01.12-.06.16-.14.04-.08.05-.17.05-.27s-.02-.19-.06-.27c-.04-.08-.1-.12-.17-.12h-2.86c-.1,0-.17.04-.22.11-.05.07-.09.15-.1.24-.01.09,0,.17.04.25.04.08.12.13.23.15l.58.13c.12.02.19.08.2.15.01.08,0,.15-.05.22l-1.82,2.38-1.73-2.39c-.08-.1-.12-.18-.1-.24.02-.07.07-.11.17-.13l.61-.11c.08-.01.15-.06.19-.14.04-.08.06-.17.06-.26s-.02-.17-.07-.24c-.05-.07-.12-.11-.21-.11l-3.21-.02c-.08,0-.15.03-.21.1-.05.07-.08.14-.09.22,0,.09.01.17.05.24.04.08.12.13.23.17l.65.14c.11.04.19.08.24.14.05.05.12.13.19.22l2.48,3.26-2.79,3.37c-.06.06-.13.12-.22.18-.08.06-.19.1-.31.13l-.47.09c-.11.02-.18.08-.23.15-.04.08-.06.17-.06.26s.02.18.07.25c.05.07.11.11.2.11h2.77c.1,0,.17-.04.22-.11.05-.07.07-.15.07-.24s-.03-.18-.07-.26c-.05-.08-.12-.13-.2-.14l-.54-.11c-.1-.01-.15-.06-.16-.13-.01-.08.01-.15.07-.22l2.16-2.66,1.91,2.63c.04.07.05.15.04.23,0,.08-.06.14-.17.16l-.56.11c-.11.02-.18.08-.22.15-.04.08-.05.16-.04.25,0,.09.03.17.08.24.05.07.11.11.18.11h3.19c.07,0,.13-.04.18-.11.05-.07.07-.15.08-.24,0-.09,0-.17-.04-.25-.04-.08-.1-.13-.2-.15Z"/>
      <path d="M222.67,51.85c-.34-.37-.75-.65-1.21-.85-.47-.19-.99-.29-1.57-.29-.65,0-1.24.11-1.76.33-.53.22-.98.54-1.35.95-.37.41-.66.91-.86,1.5-.2.59-.31,1.26-.31,1.99,0,.67.1,1.29.29,1.86.19.57.49,1.07.88,1.49.4.43.9.76,1.5,1,.61.24,1.32.36,2.15.36.23,0,.47-.02.73-.05.26-.04.51-.09.76-.16.25-.07.5-.16.73-.25.23-.1.44-.21.62-.34.12-.08.19-.18.22-.3.03-.11.02-.22-.02-.31-.04-.09-.12-.16-.23-.2-.11-.04-.24-.03-.4.03-.38.14-.78.28-1.18.41-.4.13-.81.2-1.23.2-.54,0-1.01-.09-1.42-.28-.41-.19-.75-.43-1.04-.73-.28-.3-.5-.64-.64-1.02-.14-.38-.22-.76-.22-1.16v-.36h6.03c.18,0,.32-.04.42-.11.1-.07.15-.21.15-.41,0-.72-.09-1.36-.28-1.92-.19-.56-.45-1.02-.79-1.4ZM217.16,54.76c.01-.49.1-.93.26-1.32.16-.39.37-.72.62-.99.25-.27.54-.47.85-.61.32-.14.65-.21,1-.21.68,0,1.24.27,1.66.8.42.53.64,1.31.67,2.33h-5.06Z"/>
      <path d="M213.54,38.74c0,.36-.07.63-.2.8-.13.17-.42.27-.85.29l-1.9.17c-.19.03-.32.15-.4.36-.08.21-.12.43-.12.67s.05.46.16.65.24.29.4.29h8.99c.3,0,.5-.1.63-.29.12-.2.17-.41.16-.65-.01-.24-.07-.46-.16-.65-.09-.2-.22-.31-.38-.34-.19-.03-.42-.05-.71-.06-.28-.01-.76-.06-1.43-.15-.38-.03-.63-.13-.75-.32-.12-.18-.18-.44-.18-.78V14.08c0-.28.04-.49.12-.63.08-.14.29-.25.64-.34l1.49-.21c.24-.03.42-.14.52-.35.11-.21.15-.42.14-.66-.01-.23-.08-.45-.2-.64-.12-.19-.28-.29-.46-.29h-6.01l-10.04,22.32-10.04-22.32h-6.21c-.22,0-.38.1-.48.29-.11.19-.17.41-.2.64-.03.23.01.45.12.66.11.21.28.32.52.35l1.53.21c.3.06.48.16.56.32.08.15.12.38.12.69v24.62c0,.36-.07.63-.2.8-.14.17-.42.27-.85.29l-1.69.17c-.24.03-.42.15-.52.36-.11.21-.16.43-.16.67s.06.46.18.65c.12.2.3.29.54.29h8.51c.24,0,.42-.1.54-.29s.18-.41.18-.65-.05-.46-.16-.65c-.11-.2-.26-.31-.44-.34l-1.98-.21c-.38-.06-.63-.17-.75-.34-.12-.17-.18-.42-.18-.76v-21.6l10.36,20.9h.77l10.45-20.99v21.68Z"/>
      <path d="M179.56,59.19l-.9-.13c-.13-.02-.22-.07-.25-.13-.04-.06-.05-.15-.05-.27v-7.99h-2.27c-.14,0-.25.04-.32.11-.07.07-.11.15-.13.24-.01.09,0,.18.06.27.05.09.15.15.28.17l.61.13c.11.02.19.06.23.11s.07.15.07.31v6.71c0,.22-.11.33-.32.34l-.83.09c-.11.01-.19.06-.24.15-.05.09-.08.19-.08.3s.03.2.08.29c.05.08.15.13.28.13h3.74c.11,0,.19-.04.25-.13.06-.08.09-.17.1-.27,0-.1-.02-.19-.07-.28-.05-.09-.13-.14-.24-.15Z"/>
      <path d="M231.79,50.79c-.23-.03-.48-.05-.75-.05-.34,0-.65.04-.94.12-.29.08-.56.17-.81.29-.25.11-.48.24-.69.39-.21.14-.41.29-.59.43v-1.01h-2.32c-.1,0-.17.04-.21.11-.04.07-.07.16-.07.25s.01.19.05.27c.04.09.11.13.21.14l.61.11c.11.02.19.06.25.12.06.05.09.17.09.33v6.48c0,.13-.03.21-.08.24-.05.03-.14.06-.26.08l-.54.09c-.11.01-.19.06-.23.14-.05.08-.07.18-.07.28s.03.19.08.27c.05.08.13.12.24.12h3.44c.07,0,.13-.04.16-.11.04-.07.05-.16.05-.25s-.01-.19-.04-.28c-.02-.09-.07-.15-.13-.17l-.95-.11c-.13-.02-.21-.06-.24-.12-.03-.05-.05-.13-.05-.24v-5.56c.11-.12.28-.27.51-.44.23-.17.49-.34.76-.49.27-.16.53-.29.78-.4.25-.11.46-.16.63-.16.2,0,.39.04.57.12.17.08.3.24.37.5l.16.74c.01.07.06.13.15.16.09.04.19.05.29.04.1,0,.19-.03.26-.08.07-.05.11-.12.11-.22l-.05-2.02c-.28-.05-.53-.09-.76-.12Z"/>
      <path d="M190.46,59.19l-.67-.11c-.13-.02-.21-.06-.24-.12-.03-.05-.04-.13-.04-.24v-5.29c0-.91-.27-1.59-.81-2.03-.54-.44-1.31-.67-2.3-.67-.48,0-.94.05-1.37.15-.43.1-.89.3-1.37.58v-.5h-2.3c-.1,0-.17.04-.22.11-.05.07-.09.15-.1.24-.01.09,0,.18.05.26.05.08.13.14.25.16l.52.11c.11.02.19.06.25.12.06.05.09.17.09.33v6.48c0,.13-.03.21-.08.24-.05.03-.14.06-.26.08l-.54.09c-.11.01-.18.06-.22.14-.04.08-.06.18-.04.28.01.1.04.19.09.27.05.08.11.12.2.12h3.28c.1,0,.17-.04.21-.12.04-.08.06-.17.06-.27s-.02-.2-.05-.28c-.04-.08-.09-.13-.16-.14l-.7-.11c-.11-.02-.19-.06-.23-.1-.05-.04-.07-.13-.07-.26v-6.16c.34-.23.64-.41.91-.53.27-.13.51-.22.73-.29.22-.07.41-.1.58-.12.17-.01.34-.02.51-.02.61,0,1.04.16,1.29.49.25.32.37.78.37,1.37v5.31c0,.13-.03.21-.08.24-.05.03-.14.06-.26.08l-.54.09c-.09.01-.15.06-.19.14-.04.08-.06.18-.05.28,0,.1.03.19.07.27.04.08.11.12.19.12h3.28c.08,0,.15-.04.2-.12.05-.08.08-.17.09-.27.01-.1,0-.2-.05-.28-.05-.08-.13-.13-.23-.14Z"/>
      <path d="M200.97,50.96h-3.17c-.44-.14-.93-.22-1.46-.22-.61,0-1.15.08-1.61.25s-.85.39-1.16.67c-.31.28-.55.6-.7.96-.16.36-.23.73-.23,1.11,0,.61.13,1.12.4,1.54.27.41.61.76,1.02,1.03l-.85.97h.02c-.26.3-.4.62-.4.95,0,.43.26.73.79.9-.23.19-.43.37-.59.53-.17.16-.31.33-.41.5-.11.17-.19.36-.24.55-.05.19-.08.41-.08.65,0,.3.07.59.21.86.14.28.36.51.68.72.31.2.73.37,1.24.49.52.13,1.15.19,1.91.19.88,0,1.63-.07,2.25-.21.62-.14,1.13-.33,1.51-.58.38-.25.67-.54.85-.87.18-.34.27-.7.27-1.1,0-.71-.27-1.23-.82-1.57-.55-.34-1.27-.54-2.17-.6l-3.44-.29c-.41-.02-.61-.16-.61-.41,0-.16.08-.34.25-.54l.65-.77c.17.04.35.07.56.09.2.02.41.04.61.04.61,0,1.15-.08,1.61-.23.46-.16.85-.37,1.15-.65.31-.28.53-.6.68-.98.15-.38.22-.78.22-1.21,0-.34-.07-.65-.2-.95-.13-.3-.28-.58-.45-.83h1.73c.11,0,.19-.05.25-.15.06-.1.09-.22.09-.34s-.03-.24-.09-.34c-.06-.1-.15-.15-.27-.15ZM194.4,59.71c.14-.11.3-.21.47-.31l3.24.25c.41.04.73.11.95.21.23.1.4.22.5.36.11.14.17.28.19.44.02.16.02.31,0,.47-.02.54-.34.95-.94,1.23-.6.28-1.43.42-2.5.42-.36,0-.7-.03-1.02-.09-.32-.06-.59-.15-.83-.27-.23-.12-.42-.27-.56-.46-.14-.19-.21-.4-.22-.64-.01-.28.01-.51.07-.71.06-.2.14-.37.25-.52.11-.15.23-.28.38-.39ZM197.92,55.35c-.4.41-.95.62-1.65.62-.77,0-1.34-.21-1.7-.62s-.55-.95-.55-1.62c0-.29.05-.56.16-.83.11-.26.26-.5.47-.7.2-.2.45-.36.73-.48.28-.12.6-.18.95-.18s.66.06.93.19c.27.13.5.29.69.5.19.21.34.45.43.71.1.26.14.53.14.79,0,.67-.2,1.21-.6,1.62Z"/>
      <path d="M213.44,55.75c-.28-.23-.6-.43-.94-.6-.35-.17-.7-.33-1.04-.46l-.32-.13c-.28-.11-.53-.21-.75-.3-.22-.09-.41-.19-.58-.31-.16-.11-.29-.25-.38-.41-.09-.16-.13-.37-.13-.62.01-.41.18-.74.5-.99.32-.25.78-.38,1.39-.38.31,0,.62.06.94.19.31.13.59.3.83.53l.25.88c.02.1.08.17.16.21.08.04.17.06.27.06s.18-.02.25-.07c.07-.05.11-.11.11-.2v-2.21c0-.07-.03-.13-.1-.17-.07-.04-.14-.06-.22-.06s-.16.01-.24.04c-.08.02-.13.06-.17.11l-.2.26c-.35-.17-.68-.28-1-.33-.32-.05-.62-.07-.89-.07-.48,0-.92.05-1.32.16-.4.11-.75.27-1.05.48-.3.21-.53.47-.7.77-.17.3-.25.65-.25,1.05,0,.33.08.62.25.87.17.25.39.47.66.66.27.19.57.35.9.5.33.14.66.28.98.4l.43.16c.26.1.52.21.76.33.24.13.45.27.63.44.18.17.32.37.42.59.1.22.15.48.15.79-.01.51-.21.88-.59,1.12-.38.24-.92.36-1.62.36-.35,0-.68-.07-1-.22-.32-.14-.6-.35-.84-.63l-.32-1.28c-.02-.1-.08-.16-.16-.2-.08-.04-.17-.05-.27-.04-.1.01-.18.04-.26.09-.08.05-.12.11-.12.18v1.73c.22.19.46.36.73.5.27.14.54.26.81.36.27.1.53.17.78.22.25.05.46.07.63.07.64,0,1.18-.07,1.64-.22.46-.14.83-.34,1.12-.59.29-.25.51-.53.65-.86.14-.33.21-.69.21-1.07,0-.35-.09-.66-.27-.94-.18-.28-.41-.53-.69-.76Z"/>
      <path d="M241.45,37.54c-.09-.21-.27-.36-.51-.46-.25-.1-.6-.03-.93.17-.94.58-4.19,3.9-8.77,2.39-.97-.32-1.72-1-2.36-1.7-.64-.7-1.13-1.49-1.46-2.37-.33-.88-.49-1.79-.49-2.71v-.84h13.76c.41,0,.73-.08.97-.25.23-.17.35-.49.35-.97,0-1.68-.21-3.17-.64-4.47-.42-1.3-1.03-2.39-1.81-3.26-.78-.87-1.71-1.53-2.77-1.97-1.07-.45-2.26-.67-3.57-.67-1.48,0-2.82.26-4.03.78-1.21.52-2.23,1.25-3.08,2.21-.85.95-1.51,2.12-1.97,3.51-.47,1.39-.7,2.93-.7,4.64,0,1.57.22,3.02.66,4.35.44,1.33,1.11,2.49,2.01,3.49.9.99,2,1.9,3.43,2.33,6.03,1.83,11.03-2.46,11.44-2.76.28-.2.77-.68.47-1.41ZM227.56,26.78c.37-.91.84-1.68,1.42-2.31.58-.63,1.23-1.11,1.95-1.43.73-.32,1.49-.48,2.28-.48,1.56,0,2.82.62,3.78,1.87.96,1.25,1.47,3.06,1.52,5.44h-11.54c.03-1.15.23-2.18.6-3.09Z"/>
      <path d="M257.29,58.61c-.1-.05-.21-.05-.34,0-.4.17-.79.32-1.19.45-.4.13-.77.2-1.12.2-.62,0-1.16-.1-1.59-.3-.44-.2-.79-.47-1.06-.82-.27-.35-.47-.76-.59-1.23-.13-.47-.19-.97-.19-1.52,0-.64.09-1.19.26-1.67.17-.48.4-.87.69-1.18.29-.31.62-.55,1-.7.38-.16.77-.23,1.19-.23.36,0,.71.08,1.05.23.34.16.63.32.87.5l.29,1.12c.01.06.06.1.15.13.09.02.18.03.28.03.1,0,.19-.03.27-.07.08-.04.13-.1.13-.17v-2.2c0-.07-.04-.13-.11-.17-.07-.04-.15-.07-.25-.07-.09,0-.18,0-.26.04-.08.03-.14.08-.18.14l-.09.2c-.28-.16-.6-.29-.96-.4-.37-.11-.76-.17-1.18-.17-.66,0-1.28.1-1.84.3-.57.2-1.06.49-1.48.88-.41.39-.74.88-.98,1.46-.24.58-.36,1.26-.36,2.03,0,.61.09,1.21.27,1.78.18.58.46,1.09.84,1.53.38.44.86.8,1.45,1.07.59.27,1.29.4,2.11.4.26,0,.54-.02.83-.05.29-.04.57-.09.85-.16.28-.07.53-.15.77-.25.24-.09.44-.2.59-.32.08-.05.13-.13.15-.24.02-.11,0-.22-.04-.32-.05-.1-.12-.18-.22-.23Z"/>
      <path d="M280.3,39.58c-.17-.17-.38-.25-.63-.25l-1.51-.25c-.17,0-.28-.06-.34-.19-.06-.13-.08-.37-.08-.74v-11.22c0-2.32-.69-4.1-2.06-5.34-1.37-1.23-3.32-1.85-5.84-1.85-1.23,0-2.37.15-3.42.46-1.05.31-1.95.74-2.71,1.3-.76.56-1.34,1.25-1.76,2.06-.42.81-.63,1.74-.63,2.77h3.49c0-1.4.48-2.46,1.43-3.19.95-.73,2.18-1.09,3.7-1.09s2.53.43,3.23,1.28,1.05,2.08,1.05,3.68v1.81h-3.07c-1.85,0-3.44.19-4.79.57-1.34.38-2.45.89-3.32,1.53-.87.64-1.51,1.42-1.93,2.31-.42.9-.63,1.86-.63,2.9,0,1.93.61,3.41,1.83,4.43,1.22,1.02,3.02,1.53,5.4,1.53,1.43,0,2.67-.21,3.72-.63s1.98-1.11,2.79-2.06v.59c0,.95.56,1.43,1.68,1.43h3.78c.25,0,.46-.07.63-.21.17-.14.25-.41.25-.8s-.08-.67-.25-.84ZM274.21,32.69c0,2.41-.6,4.2-1.81,5.38-1.21,1.18-2.77,1.76-4.71,1.76-1.21,0-2.12-.29-2.73-.88-.62-.59-.92-1.54-.92-2.86,0-.64.12-1.27.36-1.89.24-.62.64-1.16,1.2-1.62.56-.46,1.29-.83,2.18-1.11.9-.28,2.02-.42,3.36-.42h3.07v1.64Z"/>
      <path d="M177.51,49.06c.32,0,.6-.1.84-.31.23-.2.35-.48.35-.83,0-.38-.12-.68-.35-.89-.23-.21-.51-.32-.84-.32s-.59.11-.83.32c-.24.21-.36.51-.36.89,0,.35.12.62.36.83.24.2.52.31.83.31Z"/>
      <path d="M246.76,48.75c.23-.2.35-.48.35-.83,0-.38-.12-.68-.35-.89-.23-.21-.51-.32-.84-.32s-.59.11-.83.32c-.24.21-.36.51-.36.89,0,.35.12.62.36.83s.52.31.83.31.6-.1.84-.31Z"/>
      <path d="M242.97,50.93h-2.86c-.1,0-.17.04-.23.12-.05.08-.08.17-.08.27s.02.19.06.28c.04.09.11.13.21.15l.72.11c.08.01.15.05.19.1.04.05.04.14,0,.26l-2.39,5.96-2.54-6.01c-.07-.16-.02-.25.16-.29l.79-.13c.1-.01.16-.06.21-.15.04-.09.06-.18.06-.28s-.02-.19-.06-.27c-.04-.08-.11-.12-.19-.12h-3.29c-.1,0-.17.04-.22.12-.05.08-.08.16-.09.25,0,.09.01.18.06.27.05.09.13.14.23.15l.45.11c.11.04.2.09.27.17.07.08.13.16.16.24.55,1.27,1.12,2.57,1.71,3.89.59,1.32,1.16,2.61,1.71,3.89h.86l3.35-7.88c.02-.07.06-.14.1-.19.04-.05.13-.09.26-.12l.47-.13c.08-.02.15-.08.2-.16.05-.08.07-.17.06-.26,0-.09-.04-.17-.09-.24-.05-.07-.13-.11-.24-.11Z"/>
      <path d="M247.97,59.19l-.9-.13c-.13-.02-.22-.07-.25-.13-.04-.06-.05-.15-.05-.27v-7.99h-2.27c-.14,0-.25.04-.32.11-.07.07-.11.15-.13.24-.01.09,0,.18.06.27.05.09.15.15.28.17l.61.13c.11.02.19.06.23.11.05.05.07.15.07.31v6.71c0,.22-.11.33-.32.34l-.83.09c-.11.01-.19.06-.24.15-.05.09-.08.19-.08.3s.03.2.08.29c.05.08.15.13.28.13h3.74c.11,0,.19-.04.25-.13.06-.08.09-.17.1-.27,0-.1-.02-.19-.07-.28-.05-.09-.13-.14-.24-.15Z"/>
      <path d="M256.52,39.48c-.63.08-2.48.12-3.45-.73-.48-.42-.71-1.05-.71-1.92v-14.79h3.32c.34,0,.59-.11.78-.34.18-.22.27-.47.27-.74s-.08-.51-.25-.74c-.17-.22-.43-.34-.8-.34h-3.32v-6.81h-3v6.81h-4.23c-.28,0-.5.11-.65.34-.15.22-.23.47-.23.74s.06.51.19.74c.13.22.34.34.65.34h4.27v14.79c0,2.2.95,3.49,1.75,4.19,1.47,1.28,3.44,1.51,4.68,1.51.6,0,1.02-.05,1.14-.07.82-.12,1.39-.87,1.27-1.69-.11-.82-.87-1.39-1.69-1.28Z"/>
      <path d="M97.43,59.21l-.61-.11c-.16-.04-.25-.11-.29-.21-.04-.1-.05-.27-.05-.51v-7.43h-2.36c-.13,0-.23.04-.3.12-.07.08-.1.17-.1.26s.03.19.1.27c.07.09.16.14.28.16l.61.11c.11.02.19.06.23.11.05.05.07.16.07.32v5.71c-.38.44-.81.77-1.27.97-.46.2-.88.31-1.27.31-.26,0-.51-.03-.74-.08s-.42-.15-.59-.28c-.16-.13-.29-.31-.39-.53-.1-.22-.14-.51-.14-.85v-6.59h-2.3c-.12,0-.21.04-.27.12-.06.08-.1.17-.11.26-.01.1,0,.19.06.28.05.09.13.14.24.15l.61.11c.11.02.19.06.23.11.05.05.07.16.07.32v5.31c0,.83.27,1.47.81,1.92.54.45,1.36.67,2.45.67.24,0,.5-.03.77-.09.27-.06.53-.15.77-.26.25-.11.47-.25.67-.4.2-.16.35-.32.46-.5l.14,1.08h2.16c.12,0,.22-.04.29-.13.07-.08.11-.18.12-.28,0-.1-.02-.2-.08-.28-.06-.08-.16-.13-.29-.13Z"/>
      <path d="M77.78,49.85c0,.12.04.21.13.27.09.06.19.09.3.09s.21-.02.31-.06.16-.11.18-.21c.02-.1.05-.22.07-.38.02-.16.08-.44.18-.86.04-.2.11-.34.22-.4.11-.06.25-.09.43-.09h2.5v10.4c0,.16-.03.27-.09.33-.06.07-.19.11-.38.13l-.95.11c-.08.01-.15.06-.2.14-.05.08-.08.18-.08.28,0,.1.01.19.06.27.05.08.13.12.23.12h4.3c.07,0,.13-.04.18-.12.05-.08.07-.16.08-.26,0-.1-.01-.19-.05-.27-.04-.08-.12-.13-.22-.14l-1.01-.13c-.18-.02-.29-.08-.34-.15-.05-.08-.07-.18-.07-.31v-10.4h2.54c.17,0,.3.03.41.09.1.06.18.19.22.4l.27,1.24c.01.08.07.15.17.2.1.05.21.07.32.07s.21-.03.3-.08c.09-.05.13-.14.13-.26v-2.54h-10.13v2.52Z"/>
      <path d="M111.47,46.72c-.31,0-.59.11-.83.32-.24.21-.36.51-.36.89,0,.35.12.62.36.83.24.2.52.31.83.31s.6-.1.84-.31.35-.48.35-.83c0-.38-.12-.68-.35-.89-.23-.21-.51-.32-.84-.32Z"/>
      <path d="M98.95,41.77c.1-.18.15-.39.15-.63s-.04-.46-.13-.65c-.08-.2-.21-.31-.38-.34l-1.64-.25c-.25-.06-.43-.13-.55-.23-.11-.1-.17-.3-.17-.61v-15.03c.78-.53,1.49-.94,2.12-1.24.63-.29,1.2-.52,1.7-.67.5-.15.96-.25,1.37-.27.41-.03.8-.04,1.2-.04,1.43,0,2.43.38,3,1.13.57.76.86,1.82.86,3.19v13.05c0,.31-.06.5-.19.57-.13.07-.33.13-.61.19l-1.26.21c-.2.03-.34.14-.44.34-.1.2-.14.41-.13.65.01.24.07.45.17.63.1.18.24.27.44.27h7.65c.2,0,.35-.09.46-.27.11-.18.18-.39.21-.63.03-.24-.01-.46-.13-.65-.11-.2-.29-.31-.55-.34l-1.55-.25c-.31-.06-.5-.15-.57-.27-.07-.13-.1-.31-.1-.57v-13.01c0-2.13-.63-3.71-1.89-4.75-1.26-1.04-3.05-1.55-5.38-1.55-1.12,0-2.18.12-3.19.36-1.01.24-2.07.69-3.19,1.37v-1.48h-5.38c-.22,0-.4.08-.53.25-.13.17-.2.36-.23.57-.03.21.01.71.13.91.11.2.31.32.59.38l1.22.25c.25.06.45.15.59.27.14.13.21.39.21.78v15.78c0,.31-.06.5-.19.57-.13.07-.33.13-.61.19l-1.26.21c-.25.03-.43.14-.53.34-.1.2-.13.41-.1.65.03.24.1.45.21.63.11.18.27.27.46.27h7.65c.22,0,.38-.09.48-.27Z"/>
      <path d="M44.67,19.62c3-3.2,4.93-5.57,4.68-5.83-.25-.25-2.6,1.66-5.78,4.64.33-.86.67-1.94.99-3.14.79-2.94,1.11-5.41.72-5.51-.39-.1-1.34,2.2-2.13,5.14-.54,2.01-.85,3.78-.88,4.74-.87.83-1.78,1.72-2.71,2.66-2.73,2.73-5.09,5.25-6.63,7.06-.09-.05-.18-.1-.28-.14-.01-2.76-.04-5.39-.08-7.81.61-.44,1.45-1.17,2.34-2.06,1.58-1.58,2.69-3.03,2.48-3.24-.21-.21-1.66.9-3.24,2.48-.63.63-1.17,1.23-1.6,1.74-.03-1.68-.07-3.25-.12-4.68.66-.7,1.69-2.17,2.73-3.97,1.52-2.64,2.47-4.94,2.12-5.14-.35-.2-1.87,1.77-3.39,4.41-.63,1.08-1.15,2.1-1.53,2.95-.18-4.44-.42-7.19-.69-7.19s-.53,2.95-.71,7.68c-.39-.93-1-2.14-1.75-3.44-1.52-2.64-3.04-4.61-3.39-4.41-.35.2.6,2.5,2.12,5.14,1.16,2.02,2.32,3.64,2.96,4.2-.12,3.71-.2,8.3-.22,13.33-.18.07-.35.17-.51.28-1.26-1.47-3.06-3.41-5.14-5.55.14-.73.22-1.93.22-3.28,0-2.23-.24-4.04-.54-4.04s-.54,1.81-.54,4.04c0,.97.05,1.85.12,2.54-.24-.24-.48-.48-.72-.73-.93-.93-1.83-1.81-2.69-2.64-.02-.96-.33-2.74-.88-4.78-.79-2.94-1.74-5.24-2.13-5.14-.39.1-.07,2.57.72,5.51.33,1.22.68,2.32,1.02,3.2-3.2-3-5.57-4.93-5.83-4.68-.25.25,1.66,2.6,4.64,5.78-.86-.33-1.94-.67-3.14-.99-2.94-.79-5.41-1.11-5.51-.72-.1.39,2.2,1.34,5.14,2.13,2.01.54,3.78.85,4.74.88.83.87,1.72,1.78,2.66,2.71,2.73,2.73,5.25,5.09,7.06,6.63-.05.09-.1.18-.14.28-2.76.01-5.39.04-7.81.08-.44-.61-1.17-1.45-2.06-2.34-1.58-1.58-3.03-2.69-3.24-2.48-.21.21.9,1.66,2.48,3.24.63.63,1.23,1.17,1.74,1.6-1.68.03-3.25.07-4.68.12-.7-.66-2.17-1.69-3.97-2.73-2.64-1.52-4.94-2.47-5.14-2.12-.2.35,1.77,1.87,4.41,3.39,1.08.63,2.1,1.15,2.95,1.53-4.44.18-7.19.42-7.19.69s2.95.53,7.68.71c-.93.39-2.14,1-3.44,1.75-2.64,1.52-4.61,3.04-4.41,3.39.2.35,2.5-.6,5.14-2.12,2.02-1.16,3.64-2.32,4.2-2.96,3.71.12,8.3.2,13.33.22.07.18.17.35.28.51-1.47,1.26-3.41,3.06-5.55,5.14-.73-.14-1.93-.22-3.28-.22-2.23,0-4.04.24-4.04.54s1.81.54,4.04.54c.97,0,1.85-.05,2.54-.12-.24.24-.48.48-.73.72-.93.93-1.81,1.83-2.64,2.69-.96.02-2.74.33-4.78.88-2.94.79-5.24,1.74-5.14,2.13.1.39,2.57.07,5.51-.72,1.22-.33,2.32-.68,3.2-1.02-3,3.2-4.93,5.57-4.68,5.83s2.6-1.66,5.78-4.64c-.33.86-.67,1.94-.99,3.14-.79,2.94-1.11,5.41-.72,5.51.39.1,1.34-2.2,2.13-5.14.54-2.01.85-3.78.88-4.74.87-.83,1.78-1.72,2.71-2.66,2.73-2.73,5.09-5.25,6.63-7.06.09.05.18.1.28.14.01,2.76.04,5.39.08,7.81-.61.44-1.45,1.17-2.34,2.06-1.58,1.58-2.69,3.03-2.48,3.24.21.21,1.66-.9,3.24-2.48.63-.63,1.17-1.23,1.6-1.74.03,1.68.07,3.25.12,4.68-.66.7-1.69,2.17-2.73,3.97-1.52,2.64-2.47,4.94-2.12,5.14.35.2,1.87-1.77,3.39-4.41.63-1.08,1.15-2.1,1.53-2.95.18,4.44.42,7.19.69,7.19s.53-2.95.71-7.68c.39.93,1,2.14,1.75,3.44,1.52,2.64,3.04,4.61,3.39,4.41.35-.2-.6-2.5-2.12-5.14-1.16-2.02-2.32-3.64-2.96-4.2.12-3.71.2-8.3.22-13.33.18-.07.35-.17.51-.28,1.26,1.47,3.06,3.41,5.14,5.55-.14.73-.22,1.93-.22,3.28,0,2.23.24,4.04.54,4.04s.54-1.81.54-4.04c0-.97-.05-1.85-.12-2.54.24.24.48.48.72.73.93.93,1.83,1.81,2.69,2.64.02.96.33,2.74.88,4.78.79,2.94,1.74,5.24,2.13,5.14.39-.1.07-2.57-.72-5.51-.33-1.22-.68-2.32-1.02-3.2,3.2,3,5.57,4.93,5.83,4.68.25-.25-1.66-2.6-4.64-5.78.86.33,1.94.67,3.14.99,2.94.79,5.41,1.11,5.51.72.1-.39-2.2-1.34-5.14-2.13-2.01-.54-3.78-.85-4.74-.88-.83-.87-1.72-1.78-2.66-2.71-2.73-2.73-5.25-5.09-7.06-6.63.05-.09.1-.18.14-.28,2.76-.01,5.39-.04,7.81-.08.44.61,1.17,1.45,2.06,2.34,1.58,1.58,3.03,2.69,3.24,2.48.21-.21-.9-1.66-2.48-3.24-.63-.63-1.23-1.17-1.74-1.6,1.68-.03,3.25-.07,4.68-.12.7.66,2.17,1.69,3.97,2.73,2.64,1.52,4.94,2.47,5.14,2.12.2-.35-1.77-1.87-4.41-3.39-1.08-.63-2.1-1.15-2.95-1.53,4.44-.18,7.19-.42,7.19-.69s-2.95-.53-7.68-.71c.93-.39,2.14-1,3.44-1.75,2.64-1.52,4.61-3.04,4.41-3.39-.2-.35-2.5.6-5.14,2.12-2.02,1.16-3.64,2.32-4.2,2.96-3.71-.12-8.3-.2-13.33-.22-.07-.18-.17-.35-.28-.51,1.47-1.26,3.41-3.06,5.55-5.14.73.14,1.93.22,3.28.22,2.23,0,4.04-.24,4.04-.54s-1.81-.54-4.04-.54c-.97,0-1.85.05-2.54.12.24-.24.48-.48.73-.72.93-.93,1.81-1.83,2.64-2.69.96-.02,2.74-.33,4.78-.88,2.94-.79,5.24-1.74,5.14-2.13-.1-.39-2.57-.07-5.51.72-1.22.33-2.32.68-3.2,1.02Z"/>
      <path d="M31.66,0C14.2,0,0,14.2,0,31.66s14.2,31.66,31.66,31.66,31.66-14.2,31.66-31.66S49.12,0,31.66,0ZM31.66,60.83c-16.08,0-29.16-13.08-29.16-29.16S15.58,2.5,31.66,2.5s29.16,13.08,29.16,29.16-13.08,29.16-29.16,29.16Z"/>
      <path d="M83.44,40.52c.88-.8,1.52-1.76,1.94-2.89.41-1.12.62-2.36.62-3.73s-.28-2.64-.84-3.66c-.56-1.01-1.28-1.89-2.18-2.61-.9-.73-1.91-1.33-3.04-1.8-1.13-.47-2.27-.89-3.41-1.25-.97-.27-1.91-.56-2.82-.86-.91-.3-1.71-.69-2.4-1.16-.69-.47-1.24-1.08-1.65-1.82-.41-.74-.62-1.69-.62-2.84,0-.64.11-1.26.33-1.89.22-.62.6-1.18,1.14-1.68.54-.5,1.27-.9,2.18-1.2.91-.3,2.05-.45,3.43-.45.41,0,.88.05,1.41.16.53.11,1.07.24,1.63.41.56.17,1.09.35,1.61.54.51.2.95.4,1.3.61l.62,3.18c.06.27.2.48.42.61.22.14.45.2.7.18.25-.02.48-.09.68-.23.21-.14.31-.34.31-.61v-6.62c0-.25-.09-.44-.26-.58-.18-.14-.38-.22-.62-.25-.24-.03-.47,0-.7.09-.24.09-.41.23-.53.41l-.48,1.16c-.82-.34-1.8-.66-2.93-.95-1.13-.29-2.18-.44-3.15-.44-3.55,0-6.2.73-7.96,2.2-1.76,1.47-2.64,3.52-2.64,6.16,0,1.15.27,2.17.81,3.07.54.89,1.25,1.67,2.11,2.34.87.67,1.83,1.23,2.9,1.7,1.07.47,2.15.86,3.23,1.16.97.27,1.93.61,2.88,1,.95.39,1.8.89,2.53,1.48.73.59,1.33,1.31,1.78,2.16.45.85.68,1.88.68,3.09,0,1.97-.63,3.46-1.89,4.48-1.26,1.01-3.11,1.52-5.54,1.52-1.26,0-2.43-.23-3.5-.7-1.07-.47-2.03-1.13-2.88-1.98l-.75-4.32c-.06-.3-.21-.53-.46-.68-.25-.15-.51-.22-.77-.2-.26.02-.51.09-.73.23-.22.14-.33.34-.33.61l-.04,5.86c1.5,1.13,3.07,1.99,4.73,2.59,1.66.6,3.28.9,4.86.9,1.91,0,3.54-.22,4.91-.66,1.36-.44,2.49-1.06,3.37-1.86Z"/>
      <path d="M113.52,59.19l-.9-.13c-.13-.02-.22-.07-.25-.13-.04-.06-.05-.15-.05-.27v-7.99h-2.27c-.14,0-.25.04-.32.11-.07.07-.11.15-.13.24-.01.09,0,.18.06.27.05.09.15.15.28.17l.61.13c.11.02.19.06.23.11s.07.15.07.31v6.71c0,.22-.11.33-.32.34l-.83.09c-.11.01-.19.06-.24.15-.05.09-.08.19-.08.3s.03.2.08.29c.05.08.15.13.28.13h3.74c.11,0,.19-.04.25-.13.06-.08.09-.17.1-.27,0-.1-.02-.19-.07-.28-.05-.09-.13-.14-.24-.15Z"/>
      <path d="M155.07,50.98h-2.97c-.07,0-.13.04-.16.11-.04.07-.05.15-.05.24s.02.17.05.25c.04.08.08.12.14.13l.86.12c.2.02.28.14.22.34l-2.02,5.62-2.14-5.9h-.65c-.32.94-.68,1.92-1.05,2.96-.38,1.04-.73,2.03-1.05,2.96l-2.2-5.56c-.02-.1-.03-.18-.02-.26.01-.08.06-.12.14-.14l.88-.13c.07-.01.13-.05.16-.13.04-.08.05-.16.05-.25s-.02-.17-.05-.25c-.04-.08-.09-.11-.16-.11h-3.35c-.07,0-.13.04-.17.11-.04.07-.06.15-.06.24s.02.17.05.25c.04.08.08.12.14.13l.52.11c.13.02.23.08.31.17.07.09.13.18.16.28l3.11,7.74h.68c.08-.24.18-.5.28-.79.1-.29.23-.65.38-1.08.15-.43.34-.96.56-1.59.22-.63.5-1.41.84-2.35l2.12,5.81h.72c.22-.6.45-1.23.7-1.9.25-.67.51-1.34.77-2.03.26-.68.51-1.36.76-2.03.25-.67.49-1.31.7-1.91.06-.18.18-.29.36-.32l.49-.11s.09-.06.13-.13c.04-.08.05-.16.05-.25s-.02-.17-.06-.24-.11-.11-.19-.11Z"/>
      <path d="M162.29,41.97c.49-1.4,6.66-17.9,7.15-19.3.14-.42.41-.67.81-.76l1.1-.25c.11-.03.2-.13.29-.31.08-.18.12-.37.12-.57s-.05-.39-.14-.55c-.1-.16-.24-.25-.43-.25h-6.72c-.16,0-.29.08-.37.25-.08.16-.12.35-.12.55s.04.4.12.58c.08.18.19.28.33.31l1.96.29c.46.06.62.32.49.8l-5.07,13.46-5.37-16.23h-1.47c-.73,2.18-6.11,16.28-6.11,16.28l-3.94-13.34c-.05-.22-.07-.43-.04-.61.03-.18.14-.29.33-.31l2-.29c.16-.03.29-.13.37-.31.08-.18.12-.37.12-.57s-.04-.4-.12-.57c-.08-.18-.2-.27-.37-.27h-7.58c-.16,0-.29.08-.39.25-.1.16-.14.35-.14.55s.04.4.12.57c.08.18.19.28.33.31l1.18.25c.3.06.53.19.69.4.16.21.29.43.37.65l6.01,19h1.55c.19-.56,6.08-16.1,6.08-16.1l5.23,16.1h1.63Z"/>
      <path d="M134.57,22.62c-.99-.94-2.16-1.66-3.51-2.16-1.34-.5-2.8-.76-4.37-.76s-3.12.26-4.47.78c-1.36.52-2.54,1.26-3.53,2.23-.99.97-1.76,2.12-2.31,3.47-.55,1.34-.82,2.86-.82,4.54s.28,3.21.84,4.58c.56,1.37,1.33,2.54,2.31,3.51.98.97,2.14,1.72,3.47,2.25,1.33.53,2.78.8,4.35.8,1.68,0,3.21-.27,4.58-.8,1.37-.53,2.55-1.28,3.53-2.25.98-.97,1.74-2.13,2.29-3.51.55-1.37.82-2.9.82-4.58s-.28-3.25-.84-4.62c-.56-1.37-1.34-2.53-2.33-3.47ZM133.54,34.24c-.36,1.09-.88,2.04-1.55,2.86-.67.81-1.47,1.45-2.39,1.91-.92.46-1.95.69-3.07.69s-2.09-.24-2.98-.71c-.9-.48-1.66-1.12-2.29-1.93-.63-.81-1.11-1.76-1.45-2.86-.34-1.09-.5-2.25-.5-3.49s.17-2.39.5-3.47c.34-1.08.82-2.02,1.45-2.81.63-.8,1.39-1.43,2.29-1.89.9-.46,1.89-.69,2.98-.69s2.14.24,3.07.71c.92.48,1.72,1.12,2.39,1.93.67.81,1.19,1.76,1.55,2.83.36,1.08.55,2.22.55,3.42s-.18,2.39-.55,3.49Z"/>
      <path d="M164.12,59.12l-.65-.11c-.07,0-.12-.03-.14-.08-.02-.05-.04-.16-.04-.31v-4.81c0-1-.29-1.76-.88-2.29-.59-.53-1.42-.79-2.5-.79-.53,0-1.02.07-1.47.2-.45.13-.84.32-1.16.56-.32.24-.58.53-.76.88-.18.35-.27.74-.27,1.19h1.49c0-.6.2-1.06.61-1.37.41-.31.94-.47,1.58-.47s1.09.18,1.39.55c.3.37.45.89.45,1.57v.77h-1.31c-.79,0-1.48.08-2.05.24-.58.16-1.05.38-1.42.66-.37.28-.65.61-.83.99-.18.38-.27.8-.27,1.24,0,.83.26,1.46.78,1.9.52.44,1.29.66,2.31.66.61,0,1.14-.09,1.59-.27.45-.18.85-.47,1.2-.88v.25c0,.41.24.61.72.61h1.62c.11,0,.2-.03.27-.09.07-.06.11-.17.11-.34s-.04-.29-.11-.36c-.07-.07-.16-.11-.27-.11ZM161.78,56.27c0,1.03-.26,1.8-.77,2.3-.52.5-1.19.76-2.02.76-.52,0-.91-.13-1.17-.38-.26-.25-.4-.66-.4-1.22,0-.28.05-.55.15-.81.1-.26.27-.5.51-.69.24-.2.55-.36.94-.48.38-.12.86-.18,1.44-.18h1.31v.7Z"/>
      <path d="M134.93,50.96h-3.17c-.44-.14-.93-.22-1.46-.22-.61,0-1.15.08-1.61.25-.46.17-.85.39-1.16.67s-.55.6-.7.96c-.16.36-.23.73-.23,1.11,0,.61.14,1.12.41,1.54.27.41.61.76,1.02,1.03l-.85.97h.02c-.26.3-.4.62-.4.95,0,.43.26.73.79.9-.23.19-.43.37-.59.53-.17.16-.31.33-.41.5-.11.17-.19.36-.24.55-.05.19-.08.41-.08.65,0,.3.07.59.21.86.14.28.36.51.67.72.31.2.73.37,1.24.49.52.13,1.15.19,1.91.19.88,0,1.63-.07,2.25-.21.62-.14,1.13-.33,1.51-.58.38-.25.67-.54.85-.87.18-.34.27-.7.27-1.1,0-.71-.27-1.23-.82-1.57-.55-.34-1.27-.54-2.17-.6l-3.44-.29c-.41-.02-.61-.16-.61-.41,0-.16.08-.34.25-.54l.65-.77c.17.04.35.07.56.09.2.02.41.04.61.04.61,0,1.15-.08,1.61-.23.46-.16.85-.37,1.15-.65.31-.28.53-.6.68-.98.15-.38.23-.78.23-1.21,0-.34-.07-.65-.2-.95-.13-.3-.28-.58-.45-.83h1.73c.11,0,.19-.05.25-.15.06-.1.09-.22.09-.34s-.03-.24-.09-.34c-.06-.1-.15-.15-.27-.15ZM128.36,59.71c.14-.11.3-.21.47-.31l3.24.25c.41.04.73.11.95.21.23.1.4.22.5.36.11.14.17.28.19.44.02.16.02.31,0,.47-.02.54-.34.95-.94,1.23-.6.28-1.43.42-2.5.42-.36,0-.7-.03-1.02-.09-.32-.06-.59-.15-.83-.27-.23-.12-.42-.27-.56-.46-.14-.19-.21-.4-.23-.64-.01-.28.01-.51.07-.71.06-.2.14-.37.25-.52.11-.15.23-.28.38-.39ZM131.87,55.35c-.4.41-.95.62-1.65.62-.77,0-1.34-.21-1.7-.62-.37-.41-.55-.95-.55-1.62,0-.29.05-.56.16-.83.11-.26.26-.5.47-.7.2-.2.45-.36.73-.48.28-.12.6-.18.94-.18s.66.06.93.19c.27.13.5.29.69.5.19.21.34.45.43.71.1.26.14.53.14.79,0,.67-.2,1.21-.6,1.62Z"/>
      <path d="M107.94,59.19l-.67-.11c-.13-.02-.21-.06-.24-.12-.03-.05-.05-.13-.05-.24v-5.29c0-.91-.27-1.59-.81-2.03-.54-.44-1.31-.67-2.3-.67-.48,0-.94.05-1.37.15-.43.1-.89.3-1.37.58v-.5h-2.3c-.1,0-.17.04-.23.11-.05.07-.09.15-.1.24-.01.09,0,.18.05.26.05.08.13.14.25.16l.52.11c.11.02.19.06.25.12.06.05.09.17.09.33v6.48c0,.13-.03.21-.08.24-.05.03-.14.06-.26.08l-.54.09c-.11.01-.18.06-.22.14-.04.08-.06.18-.05.28.01.1.04.19.09.27.05.08.11.12.2.12h3.28c.1,0,.16-.04.21-.12.04-.08.06-.17.06-.27s-.02-.2-.05-.28c-.04-.08-.09-.13-.16-.14l-.7-.11c-.11-.02-.19-.06-.23-.1s-.07-.13-.07-.26v-6.16c.34-.23.64-.41.91-.53.27-.13.51-.22.73-.29.22-.07.41-.1.58-.12.17-.01.35-.02.51-.02.61,0,1.04.16,1.29.49.25.32.37.78.37,1.37v5.31c0,.13-.03.21-.08.24-.05.03-.14.06-.26.08l-.54.09c-.08.01-.15.06-.19.14-.04.08-.06.18-.05.28,0,.1.03.19.07.27.04.08.1.12.19.12h3.28c.08,0,.15-.04.2-.12.05-.08.08-.17.09-.27.01-.1,0-.2-.05-.28-.05-.08-.13-.13-.23-.14Z"/>
      <path d="M124.41,59.19l-.67-.11c-.13-.02-.21-.06-.24-.12-.03-.05-.05-.13-.05-.24v-5.29c0-.91-.27-1.59-.81-2.03-.54-.44-1.31-.67-2.3-.67-.48,0-.94.05-1.37.15-.43.1-.89.3-1.37.58v-.5h-2.3c-.1,0-.17.04-.23.11-.05.07-.09.15-.1.24-.01.09,0,.18.05.26.05.08.13.14.25.16l.52.11c.11.02.19.06.25.12.06.05.09.17.09.33v6.48c0,.13-.03.21-.08.24-.05.03-.14.06-.26.08l-.54.09c-.11.01-.18.06-.22.14-.04.08-.06.18-.05.28.01.1.04.19.09.27.05.08.11.12.2.12h3.28c.1,0,.17-.04.21-.12.04-.08.06-.17.06-.27s-.02-.2-.05-.28c-.04-.08-.09-.13-.16-.14l-.7-.11c-.11-.02-.19-.06-.23-.1-.05-.04-.07-.13-.07-.26v-6.16c.34-.23.64-.41.91-.53.27-.13.51-.22.73-.29.22-.07.41-.1.58-.12.17-.01.35-.02.51-.02.61,0,1.04.16,1.29.49.25.32.37.78.37,1.37v5.31c0,.13-.03.21-.08.24-.05.03-.14.06-.26.08l-.54.09c-.08.01-.15.06-.19.14-.04.08-.06.18-.05.28,0,.1.03.19.07.27.04.08.1.12.19.12h3.28c.08,0,.15-.04.2-.12.05-.08.08-.17.09-.27.01-.1,0-.2-.05-.28-.05-.08-.13-.13-.23-.14Z"/>
    </g>
  </g>
</svg>
